# xmcd
#
# Track frame offsets:
#	180
#	2624
#	26719
#	28606
#	54501
#	56834
#	59976
#	78992
#	81556
#	99331
#	121646
#	145381
#	166156
#	185612
#	189115
#	204256
#	213781
#	214081
#	214606
#	214906
#	215206
#	215506
#	215806
#	216106
#	216406
#	216706
#	217871
#	233940
#
# Disc length: 3123 seconds
#
# Revision: 0
# Processed by: cddbd v1.5.2PL0 Copyright (c) Steve Scherf et al.
# Submitted via: EasyCDDAExtractor 16.0.6.1
#
DISCID=c30c311c
DTITLE=Cornell Stone - Stoned
DYEAR=2002
DGENRE=Soul
TTITLE0=Til You Come Back To Me (Interlude)
TTITLE1=Super Star (Long Version)
TTITLE2=The Party (Interlude)
TTITLE3=She So Beautiful
TTITLE4=I Wanna Know
TTITLE5=Quality Time (Interlude)
TTITLE6=Stoned
TTITLE7=Bubble Bath (Interlude)
TTITLE8=The Whole Nine
TTITLE9=Let Me
TTITLE10=When You Need A Little Somethin'
TTITLE11=Who Would Have Ever Thought
TTITLE12=Lesson Learned
TTITLE13=Nature's Conviction
TTITLE14=Super Star (Short Version)
TTITLE15=The House Of Stone (Interlude)
TTITLE16=Untitled Hidden Track
TTITLE17=Untitled Hidden Track
TTITLE18=Untitled Hidden Track
TTITLE19=Untitled Hidden Track
TTITLE20=Untitled Hidden Track
TTITLE21=Untitled Hidden Track
TTITLE22=Untitled Hidden Track
TTITLE23=Untitled Hidden Track
TTITLE24=Untitled Hidden Track
TTITLE25=Untitled Hidden Track
TTITLE26=Funked Up
TTITLE27=Damn I Wanna Hear Dat 1 Mo' Gin
EXTD=
EXTT0=
EXTT1=
EXTT2=
EXTT3=
EXTT4=
EXTT5=
EXTT6=
EXTT7=
EXTT8=
EXTT9=
EXTT10=
EXTT11=
EXTT12=
EXTT13=
EXTT14=
EXTT15=
EXTT16=
EXTT17=
EXTT18=
EXTT19=
EXTT20=
EXTT21=
EXTT22=
EXTT23=
EXTT24=
EXTT25=
EXTT26=
EXTT27=
PLAYORDER=
